# xmcd
#
# Track frame offsets:
#	150
#	26295
#	41917
#	60540
#	76145
#	99365
#	114395
#	138510
#	158625
#
# Disc length: 2248 seconds
#
# Revision: 0
# Processed by: cddbd v1.5.2PL0 Copyright (c) Steve Scherf et al.
# Submitted via: audiograbber 1.83.01
#
DISCID=6508c609
DTITLE=Queen - The Works
DYEAR=1984
DGENRE=Rock
TTITLE0=Radio Ga Ga
TTITLE1=Tear It Up
TTITLE2=It's A Hard Life
TTITLE3=Man On The Prowl
TTITLE4=Machines (or 'Back To Humans')
TTITLE5=I Want To Break Free
TTITLE6=Keep Passing The Open Windows
TTITLE7=Hammer To Fall
TTITLE8=Is This The World We Created....?
EXTD=
EXTT0=
EXTT1=
EXTT2=
EXTT3=
EXTT4=
EXTT5=
EXTT6=
EXTT7=
EXTT8=
PLAYORDER=
